<?xml version="1.0" encoding="utf-8"?>
<!-- Generator: Adobe Illustrator 27.0.1, SVG Export Plug-In . SVG Version: 6.00 Build 0)  -->
<svg version="1.1" id="Layer_1" xmlns="http://www.w3.org/2000/svg" xmlns:xlink="http://www.w3.org/1999/xlink" x="0px" y="0px"
	 viewBox="0 0 512 512" style="enable-background:new 0 0 512 512;" xml:space="preserve">
<style type="text/css">
	.st0{fill:#FFC107;}
</style>
<path class="st0" d="M256,512c141.4,0,256-114.6,256-256S397.4,0,256,0S0,114.6,0,256S114.6,512,256,512z M256,320
	c44.2,0,80,35.8,80,80v16H176v-16C176,355.8,211.8,320,256,320z M224,224c0,35.3-28.7,64-64,64s-64-28.7-64-64s28.7-64,64-64
	S224,188.7,224,224z M352,288c-35.3,0-64-28.7-64-64s28.7-64,64-64s64,28.7,64,64S387.3,288,352,288z M176,112
	c-4.4,0-8.8,0.3-13,0.9c-21.2,2.8-40.6,12.4-56.1,26.8l-11.7,10.9l-21.8-23.4l11.7-10.9c20.1-18.7,45.5-31.5,73.7-35.2
	c5.6-0.7,11.4-1.1,17.2-1.1h16v32C192,112,176,112,176,112z M349,112.9c-4.3-0.6-8.6-0.9-13-0.9h-16V80h16c5.8,0,11.6,0.4,17.2,1.1
	c28.2,3.7,53.7,16.4,73.7,35.2l11.7,10.9l-21.8,23.4l-11.7-10.9C389.6,125.2,370.3,115.7,349,112.9L349,112.9z M192.4,224
	c0-17.7-14.3-32-32-32s-32,14.3-32,32s14.3,32,32,32S192.4,241.7,192.4,224z M352.4,256c17.7,0,32-14.3,32-32s-14.3-32-32-32
	s-32,14.3-32,32S334.7,256,352.4,256z"/>
</svg>
