<?xml version="1.0" encoding="utf-8"?>
<!-- Generator: Adobe Illustrator 26.5.0, SVG Export Plug-In . SVG Version: 6.00 Build 0)  -->
<svg version="1.1" id="Layer_1" xmlns="http://www.w3.org/2000/svg" xmlns:xlink="http://www.w3.org/1999/xlink" x="0px" y="0px"
	 viewBox="0 0 512 512" style="enable-background:new 0 0 512 512;" xml:space="preserve">
<style type="text/css">
	.st0{fill:#D9534F;}
</style>
<path class="st0" d="M0,256c0,141.4,114.6,256,256,256s256-114.6,256-256S397.4,0,256,0S0,114.6,0,256z M240,336c0-8.8,7.2-16,16-16
	c45,0,85.6,20.5,115.7,53.1c6,6.5,5.6,16.6-0.9,22.6s-16.6,5.6-22.6-0.9c-25-27.1-57.4-42.9-92.3-42.9
	C247.1,351.9,239.9,344.7,240,336L240,336z M160,416c-26.5,0-48-21-48-47c0-20,28.6-60.4,41.6-77.7c3.2-4.4,9.6-4.4,12.8,0
	C179.6,308.6,208,349,208,369C208,395,186.5,416,160,416z M303.6,208c0-17.7,14.3-32,32-32s32,14.3,32,32s-14.3,32-32,32
	S303.6,225.7,303.6,208z M175.6,240c-17.7,0-32-14.3-32-32s14.3-32,32-32s32,14.3,32,32S193.3,240,175.6,240z"/>
</svg>
