<?xml version="1.0" encoding="utf-8"?>
<!-- Generator: Adobe Illustrator 27.3.1, SVG Export Plug-In . SVG Version: 6.00 Build 0)  -->
<svg version="1.1" id="Layer_1" xmlns="http://www.w3.org/2000/svg" xmlns:xlink="http://www.w3.org/1999/xlink" x="0px" y="0px"
	 viewBox="0 0 448 512" style="enable-background:new 0 0 448 512;" xml:space="preserve">
<style type="text/css">
	.st0{fill:#3880FF;}
	.st1{opacity:0.4;fill:#3880FF;enable-background:new    ;}
</style>
<path class="st0" d="M224,48c-35.3,0-64,28.7-64,64v120c0,13.3-10.7,24-24,24s-24-10.7-24-24V112C112,50.1,162.1,0,224,0
	s112,50.1,112,112v120c0,13.3-10.7,24-24,24s-24-10.7-24-24V112C288,76.7,259.3,48,224,48z"/>
<path class="st1" d="M288,160H160v72c0,13.3-10.7,24-24,24s-24-10.7-24-24v-72H48c-26.5,0-48,21.5-48,48v208c0,53,43,96,96,96h256
	c53,0,96-43,96-96V208c0-26.5-21.5-48-48-48h-64v72c0,13.3-10.7,24-24,24s-24-10.7-24-24V160z"/>
</svg>
